<svg width="20" height="20" viewBox="0 0 20 20" fill="none" xmlns="http://www.w3.org/2000/svg">
<path d="M7.91659 1.4585C7.57021 1.4585 7.25994 1.67277 7.13727 1.99671L6.94594 2.50194C6.53579 2.46096 6.1579 2.42005 5.85199 2.3857C5.62331 2.36003 5.43533 2.33807 5.30475 2.32256L5.15413 2.30448L5.10298 2.29823C4.64623 2.24167 4.22947 2.56601 4.17291 3.02275C4.11635 3.4795 4.44076 3.89562 4.89751 3.95218L4.95317 3.95899L5.10815 3.97759C5.24177 3.99346 5.43333 4.01584 5.66602 4.04196C6.13099 4.09417 6.76207 4.16157 7.42419 4.22199C8.31734 4.30351 9.29636 4.37516 9.99992 4.37516C10.7035 4.37516 11.6825 4.30351 12.5757 4.22199C13.2378 4.16157 13.8689 4.09417 14.3338 4.04196C14.5665 4.01584 14.7581 3.99346 14.8917 3.97759L15.0467 3.95899L15.1022 3.95219C15.559 3.89563 15.8835 3.4795 15.8269 3.02275C15.7704 2.56601 15.3543 2.24159 14.8975 2.29814L14.8457 2.30448L14.6951 2.32256C14.5645 2.33807 14.3765 2.36003 14.1479 2.3857C13.842 2.42005 13.4641 2.46096 13.0539 2.50194L12.8626 1.99671C12.7399 1.67277 12.4296 1.4585 12.0833 1.4585H7.91659Z" fill="#667185"/>
<path d="M9.16659 9.79183C9.16659 9.33159 8.79349 8.9585 8.33326 8.9585C7.87302 8.9585 7.49992 9.33159 7.49992 9.79183V13.9585C7.49992 14.4187 7.87302 14.7918 8.33326 14.7918C8.79349 14.7918 9.16659 14.4187 9.16659 13.9585V9.79183Z" fill="#667185"/>
<path d="M11.6666 8.9585C12.1268 8.9585 12.4999 9.33159 12.4999 9.79183V13.9585C12.4999 14.4187 12.1268 14.7918 11.6666 14.7918C11.2064 14.7918 10.8333 14.4187 10.8333 13.9585V9.79183C10.8333 9.33159 11.2064 8.9585 11.6666 8.9585Z" fill="#667185"/>
<path fill-rule="evenodd" clip-rule="evenodd" d="M15.758 6.70896C15.8335 5.65166 14.9219 4.80402 13.886 4.92374C12.826 5.04625 11.1902 5.2085 9.99992 5.2085C8.80964 5.2085 7.17387 5.04625 6.11385 4.92374C5.07791 4.80402 4.16636 5.65165 4.24188 6.70896L4.95583 16.7042C5.00995 17.4619 5.57431 18.1025 6.34879 18.219C7.1793 18.3438 8.70321 18.5433 10.0009 18.5418C11.2826 18.5403 12.8127 18.3417 13.6469 18.218C14.4227 18.1029 14.9899 17.4618 15.0442 16.7019L15.758 6.70896ZM14.0773 6.57939C14.0802 6.57906 14.0824 6.57925 14.0824 6.57925L14.0846 6.57976C14.0865 6.5804 14.0894 6.58192 14.0923 6.58464C14.0942 6.58644 14.0956 6.58864 14.0956 6.58864L14.0955 6.59022L13.3825 16.5723C12.557 16.6943 11.142 16.8738 9.99896 16.8752C8.8435 16.8765 7.43732 16.6967 6.61744 16.5739L5.90431 6.59022L5.90425 6.58864C5.90425 6.58864 5.90567 6.58644 5.90757 6.58464C5.91044 6.58192 5.91335 6.5804 5.9152 6.57976L5.9174 6.57925C5.9174 6.57925 5.91962 6.57906 5.92251 6.57939C6.98441 6.70211 8.70446 6.87516 9.99992 6.87516C11.2954 6.87516 13.0154 6.70211 14.0773 6.57939Z" fill="#667185"/>
</svg>
