<svg width="19" height="18" viewBox="0 0 19 18" fill="none" xmlns="http://www.w3.org/2000/svg">
<path d="M5.24984 2.33317C5.71008 2.33317 6.08317 1.96007 6.08317 1.49984C6.08317 1.0396 5.71008 0.666504 5.24984 0.666504H3.99984C2.15889 0.666504 0.666504 2.15889 0.666504 3.99984V13.9998C0.666504 15.8408 2.15889 17.3332 3.99984 17.3332H5.24984C5.71007 17.3332 6.08317 16.9601 6.08317 16.4998C6.08317 16.0396 5.71007 15.6665 5.24984 15.6665H3.99984C3.07936 15.6665 2.33317 14.9203 2.33317 13.9998L2.33317 3.99984C2.33317 3.07936 3.07936 2.33317 3.99984 2.33317H5.24984Z" fill="white"/>
<path d="M17.9224 9.58909C18.2479 9.26366 18.2479 8.73602 17.9224 8.41058L14.5891 5.07725C14.2637 4.75181 13.736 4.75181 13.4106 5.07725C13.0851 5.40269 13.0851 5.93032 13.4106 6.25576L15.3213 8.1665L5.6665 8.1665C5.20627 8.1665 4.83317 8.5396 4.83317 8.99984C4.83317 9.46007 5.20627 9.83317 5.6665 9.83317L15.3213 9.83317L13.4106 11.7439C13.0851 12.0694 13.0851 12.597 13.4106 12.9224C13.736 13.2479 14.2637 13.2479 14.5891 12.9224L17.9224 9.58909Z" fill="white"/>
</svg>
