<svg width="121" height="121" viewBox="0 0 121 121" fill="none" xmlns="http://www.w3.org/2000/svg">
<rect width="120" height="120" transform="translate(0.5 0.5)" fill="white"/>
<path d="M64.0566 91.9173L64.0794 91.9219L64.0646 91.8877C64.0623 91.8968 64.0601 91.9082 64.0566 91.9173Z" fill="#2F80ED"/>
<path d="M70.1493 83.9583L70.1607 83.9697L61.1502 81.851C60.3646 81.6686 59.7032 81.1452 59.3509 80.4154L58.0407 77.7381C51.9585 62.5884 65.7638 47.1308 61.4467 36.3768C61.4353 36.3426 61.4239 36.3198 61.4011 36.2856C63.0191 35.2947 64.6132 34.793 66.0717 34.793C67.2678 34.793 68.3841 35.1351 69.318 35.7953C69.5461 35.9663 69.7741 36.1488 69.9896 36.3643C70.0923 36.4669 70.1949 36.5695 70.2975 36.6949C70.4914 36.923 70.6852 37.1739 70.8551 37.435C71.0376 37.7087 71.1972 38.004 71.3454 38.3119C71.4139 38.4601 71.4823 38.6197 71.5507 38.7908C71.6077 38.9276 71.6647 39.0758 71.7217 39.2241C71.7559 39.3381 71.7901 39.4407 71.8244 39.5548C71.87 39.6688 71.9042 39.7942 71.9384 39.9083C71.9726 40.0679 72.0182 40.2275 72.0524 40.3872C72.098 40.5696 72.1436 40.7635 72.1778 40.9562C72.2006 41.0816 72.2235 41.2298 72.2463 41.3553C72.2577 41.4693 72.2805 41.5833 72.2919 41.6973C72.3147 41.8798 72.3375 42.0622 72.3489 42.2549C72.3717 42.4032 72.3831 42.5514 72.3831 42.6996C72.8962 52.189 64.5004 64.3318 67.0637 76.5545V76.6001C67.1207 76.8851 67.1891 77.1691 67.269 77.4541C67.3374 77.7506 67.4286 78.0459 67.5198 78.3538C67.6909 78.9456 67.9075 79.5386 68.1458 80.1418L69.342 83.1145C69.5005 83.5147 69.7969 83.7986 70.1493 83.9583Z" fill="#1971A3"/>
<path d="M67.2677 77.4544C67.1879 77.1693 67.1195 76.8854 67.0625 76.6003V76.5547C67.1309 76.8512 67.1993 77.1465 67.2677 77.4544Z" fill="url(#paint0_linear_2532_16496)"/>
<path d="M63.6978 91.8315H63.7L63.6978 91.8338V91.8315Z" fill="#2F80ED"/>
<path d="M78.6158 105.362L69.3077 103.141L68.5414 102.958C68.5266 102.953 68.5141 102.945 68.5004 102.935C68.2598 102.799 68.0534 102.597 67.912 102.333C67.9086 102.332 67.9086 102.332 67.9097 102.331C67.8801 102.28 67.855 102.225 67.8322 102.168L65.2916 95.8338L64.1126 92.8999C64.0898 92.8429 64.0704 92.7859 64.0544 92.7277C64.0544 92.7266 64.0522 92.7254 64.0544 92.7232C63.9815 92.4552 63.9849 92.177 64.0544 91.917L64.0772 91.9216L73.8038 94.2443L74.1584 94.2648C74.0672 94.5864 74.082 94.9364 74.2132 95.2614L75.3922 98.1954L75.4093 98.2364L77.9327 104.53C78.0684 104.866 78.3022 105.124 78.5838 105.287L78.6158 105.362Z" fill="#1971A3"/>
<path d="M68.5015 102.936C68.5151 102.945 68.5277 102.953 68.5425 102.958L68.5094 102.95H68.5083L68.5015 102.936Z" fill="#2F80ED"/>
<path d="M64.0661 91.8877L64.0809 91.9219L64.0581 91.9173C64.0604 91.9082 64.0627 91.8968 64.0661 91.8877Z" fill="#2F80ED"/>
<path d="M78.0616 90.4805L78.0627 90.4839L77.3877 91.078V91.0768L78.0616 90.4805Z" fill="#2F80ED"/>
<path d="M41.4634 48.2298L31.5498 44.6824C31.5498 44.6824 34.7084 31.7003 45.3608 22.2885C50.4351 17.8026 56.068 15.3157 61.0476 15.5107C61.652 15.5369 62.2472 15.5985 62.8322 15.7034L62.847 15.7068L64.1332 16.0135L73.1448 18.1504C71.5576 17.8403 69.8756 17.8357 68.1504 18.1151C67.4469 18.2291 66.7399 18.391 66.0226 18.5974C62.4935 19.602 58.8617 21.7081 55.4694 24.7024C44.8169 34.112 41.6572 47.0895 41.6572 47.0895L41.8465 47.159" fill="#1971A3"/>
<path d="M79.5362 71.3478C75.0025 60.0704 89.7885 44.3278 82.8624 27.0925C80.7552 21.8301 77.2922 18.9931 73.2374 18.1732L73.1461 18.1504C71.5623 17.8426 69.877 17.8312 68.1449 18.1162H68.1107C67.4162 18.2303 66.7207 18.3899 66.0262 18.5951C62.4948 19.5974 58.8607 21.7047 55.4661 24.7013C44.8148 34.1109 41.6597 47.085 41.6597 47.085L41.8421 47.1534L50.1239 50.1261C50.9096 50.3997 51.7876 50.012 52.0829 49.2378C53.0966 46.663 55.5802 41.1612 59.3841 37.7894C60.0558 37.1976 60.7285 36.6959 61.4001 36.2854C63.0182 35.2945 64.6123 34.7928 66.0707 34.7928C67.2669 34.7928 68.3832 35.1349 69.3171 35.7951C69.5451 35.9661 69.7732 36.1486 69.9887 36.3641C70.0913 36.4667 70.194 36.5693 70.2966 36.6947C70.5018 36.9228 70.6843 37.1737 70.8542 37.4348C71.0366 37.7085 71.1963 38.0038 71.3445 38.3117C71.4129 38.4599 71.4813 38.6195 71.5497 38.7906C71.6068 38.9274 71.6638 39.0756 71.7208 39.2239C71.755 39.3379 71.7892 39.4405 71.8234 39.5546C71.869 39.6686 71.9032 39.794 71.9374 39.9081C71.9716 40.0677 72.0173 40.2273 72.0515 40.387C72.0971 40.5694 72.1427 40.7633 72.1769 40.956C72.1997 41.0814 72.2225 41.2296 72.2453 41.3551C72.2567 41.4691 72.2795 41.5831 72.2909 41.6971C72.3023 41.7542 72.3023 41.7998 72.3137 41.8568C72.3251 41.9936 72.3479 42.119 72.3479 42.2559C72.3707 42.4041 72.3707 42.5524 72.3821 42.7006C72.8953 52.19 64.4994 64.3328 67.0628 76.5554V76.601C67.1198 76.8861 67.1882 77.17 67.268 77.4551C67.3364 77.7515 67.4276 78.0469 67.5189 78.3548C67.6899 78.9466 67.9066 79.5395 68.1449 80.1427L69.341 83.1154C69.5007 83.5145 69.7971 83.7984 70.1495 83.9581L70.1609 83.9695C70.6854 84.1861 71.3228 84.1291 71.8017 83.6958L80.3447 76.1552C80.8464 75.7105 81.0049 75.016 80.7666 74.4128L79.5362 71.3478ZM89.3552 95.8284L85.6299 86.5556C85.3904 85.941 84.8214 85.5875 84.2285 85.5761C83.8522 85.5761 83.477 85.6902 83.1692 85.9638L78.0664 90.4748V90.4862L77.3834 91.078L75.8908 92.3995L74.6262 93.5273C74.3982 93.7211 74.2385 93.9834 74.1587 94.2673C74.1473 94.3015 74.1473 94.3243 74.1359 94.3585C74.0675 94.655 74.0903 94.9732 74.2157 95.2582L75.3891 98.1967L75.4119 98.2309L77.9296 104.53C78.0664 104.86 78.3059 105.122 78.5898 105.281C79.136 105.612 79.8658 105.578 80.4006 105.11L88.9435 97.5582C89.435 97.1271 89.606 96.4316 89.3552 95.8284Z" fill="#06B1CF"/>
<path d="M84.2293 85.5759C83.853 85.5759 83.4778 85.6899 83.17 85.9636L78.0672 90.4745V90.4859L77.3842 91.0777L75.8916 92.3993L74.627 93.527C74.3932 93.7334 74.1697 94.1781 74.1367 94.3583C74.1253 94.3925 74.1481 94.3241 74.1367 94.3583L64.0783 91.9204L64.0669 91.8862C64.1467 91.6125 64.3064 91.3628 64.523 91.1575L64.7967 90.9181L67.9746 88.1153L73.066 83.6043C73.408 83.3079 73.8288 83.1824 74.2279 83.2281L74.2165 83.1938H74.2279L84.2293 85.5759Z" fill="#8CD50A"/>
<path d="M31.5508 44.6802L41.4643 48.2299L50.712 50.2675L41.6582 47.0919L31.5508 44.6802Z" fill="#8CD50A"/>
<defs>
<linearGradient id="paint0_linear_2532_16496" x1="67.1065" y1="77.4303" x2="67.2369" y2="76.4854" gradientUnits="userSpaceOnUse">
<stop stop-color="#8FAFFF"/>
<stop offset="0.5478" stop-color="#4982EB"/>
<stop offset="1" stop-color="#0D5ADA"/>
</linearGradient>
</defs>
</svg>
