<svg width="121" height="121" viewBox="0 0 121 121" fill="none" xmlns="http://www.w3.org/2000/svg">
<path d="M96.684 13.1431C94.9227 13.2182 93.1179 13.8343 91.3504 14.9962C89.9311 15.9142 88.5445 16.8196 87.1097 17.7047C82.9374 20.238 78.7511 22.665 74.5818 25.1217C72.7833 26.2211 71.2769 26.648 70.8976 23.4625C70.6629 21.3452 70.0333 19.3779 69.5996 17.3341C71.0018 16.4615 72.404 15.5873 73.7906 14.6819C76.068 13.2104 78.4417 12.6396 80.5388 12.846L96.684 13.1431Z" fill="url(#paint0_linear_2532_13418)"/>
<path d="M30.9355 48.8711C29.8209 49.2229 28.8058 49.4622 27.8544 49.7515C27.2 49.9266 26.5424 50.1784 25.9331 50.5256C18.518 54.7118 11.1978 59.0857 3.78273 63.272C1.98726 64.2978 0.864902 65.8116 0.585089 67.6037C0.384556 68.6905 0.541562 69.8665 1.02346 71.0675C1.94218 73.2974 2.92464 75.5039 3.8931 77.6792C4.19002 78.3516 4.46983 78.9912 4.7341 79.6761C5.3901 81.1461 6.01347 82.6317 6.61973 84.0829C11.3719 95.2514 16.1069 106.464 20.8436 117.599C21.1078 118.209 21.425 118.686 21.7763 119.076C22.5737 119.969 23.5764 120.333 24.6723 120.177L41.5311 120.496C40.7181 120.433 39.9579 120.086 39.3206 119.357C38.9848 118.999 38.6537 118.491 38.4034 117.912C37.8127 116.492 37.2033 115.115 36.6126 113.695C32.4854 103.935 28.341 94.1443 24.1811 84.3956C23.5578 82.9131 22.9344 81.4291 22.2799 79.9592C22.0328 79.3071 21.7359 78.6331 21.4545 77.9919C20.4705 75.7854 19.5036 73.6117 18.5849 71.3802C18.103 70.1792 17.9459 69.0048 18.1309 67.8867C18.4263 66.1275 19.5316 64.5793 21.3426 63.5863C28.7421 59.3703 36.1105 55.0136 43.4913 50.8399C44.1007 50.4927 44.7583 50.241 45.3972 50.0346C46.3485 49.7453 47.3792 49.5373 48.4782 49.1541L30.9355 48.8711Z" fill="#1971A3"/>
<path d="M55.0304 0.682963C53.8396 0.728313 52.6302 0.966008 51.3835 1.3679C49.2849 2.02156 47.9962 2.96453 47.3495 4.3344L47.3324 4.37975L47.348 4.41103C47.1956 4.73317 47.0728 5.1163 47.0013 5.51819C46.8163 6.63629 46.8878 7.95613 47.2469 9.61687C47.4397 10.552 47.634 11.4903 47.7941 12.4379C48.2138 14.3739 48.6973 16.2849 49.1823 18.1958C49.5616 19.6611 49.8912 21.106 50.1881 22.5635C50.5254 24.4916 50.7974 26.4479 50.8239 28.4589C50.8068 29.2877 50.7912 30.1181 50.7415 30.9594L50.7555 31.0673C50.6948 31.7272 50.6653 32.3746 50.6031 33.0346C50.171 38.5141 49.1015 44.0514 48.4812 49.1556L30.9354 48.8741C31.5401 43.7387 32.6267 38.2341 33.0588 32.7531C33.121 32.0916 33.1334 31.4145 33.1956 30.7546L33.1972 30.6795C33.2454 29.8366 33.2469 28.975 33.2283 28.1587C33.236 26.1367 32.9811 24.2132 32.594 22.2648C32.3298 20.7948 31.9987 19.3499 31.6364 17.9143C31.1514 16.0034 30.6524 14.0627 30.2498 12.158C30.0881 11.2088 29.8954 10.2721 29.6855 9.30411C29.3435 7.67778 29.2549 6.3251 29.4555 5.23827C29.5285 4.83638 29.6498 4.45325 29.7866 4.1014C30.4022 2.66897 31.7048 1.75728 33.8221 1.05984C34.6584 0.77679 35.5088 0.600082 36.3591 0.5L40.1708 0.537531L55.0304 0.682963Z" fill="#1971A3"/>
<path d="M98.4199 32.6201C98.4837 32.6436 98.5458 32.6608 98.6065 32.6686C98.5427 32.6608 98.4821 32.6389 98.4199 32.6201Z" fill="url(#paint1_linear_2532_13418)"/>
<path d="M111.823 41.4413C113.558 37.7085 113.724 34.1243 112.207 30.9264C109.687 25.6408 107.966 26.9731 105.515 24.8041C106.374 17.5138 102.305 13.1211 97.2681 13.1399L96.6821 13.1414C94.9208 13.2165 93.116 13.8326 91.3485 14.9945C89.9293 15.9125 88.5426 16.8179 87.1078 17.703C82.9355 20.2363 78.7492 22.6633 74.5799 25.12C72.7814 26.2194 71.275 26.6463 70.8957 23.4609C70.661 21.3435 70.0314 19.3762 69.5977 17.3324C69.4189 16.4285 69.2573 15.5544 69.2277 14.6302C68.8127 6.66736 62.6288 0.38876 55.1438 0.673369L55.0288 0.679625C53.838 0.724974 52.6286 0.96267 51.3819 1.36456C49.2833 2.01822 47.9946 2.96119 47.3479 4.33106L47.3308 4.37641L47.3463 4.40769C47.194 4.72983 47.0712 5.11296 46.9997 5.51485C46.8147 6.63296 46.8862 7.95279 47.2453 9.61353C47.4381 10.5487 47.6324 11.4869 47.7925 12.4346C48.2122 14.3706 48.6957 16.2815 49.1807 18.1925C49.56 19.6577 49.8895 21.1027 50.1864 22.5601C50.5238 24.4883 50.7958 26.4446 50.8222 28.4556C50.8051 29.2844 50.7896 30.1148 50.7398 30.9561L50.7538 31.064C50.6932 31.7239 50.6637 32.3713 50.6015 33.0312C50.1693 38.5107 49.0998 44.0481 48.4796 49.1523C47.379 49.5354 46.3499 49.7434 45.3985 50.0327C44.7581 50.2391 44.1021 50.4909 43.4927 50.8381C36.1118 55.0118 28.7434 59.3685 21.3439 63.5845C19.5313 64.5775 18.4261 66.1256 18.1323 67.8849C17.9473 69.003 18.1027 70.179 18.5862 71.3784C19.5034 73.6099 20.4718 75.7851 21.4558 77.9901C21.7357 78.6297 22.0326 79.3036 22.2813 79.9573C22.9373 81.4273 23.5591 82.9113 24.1825 84.3938C28.3424 94.1424 32.4867 103.933 36.6139 113.693C37.2047 115.113 37.814 116.49 38.4047 117.91C38.655 118.489 38.9861 118.997 39.3219 119.355C39.9593 120.084 40.7194 120.431 41.5324 120.494C42.3781 120.542 43.3124 120.298 44.2513 119.751C50.1507 116.37 56.0703 112.869 61.9541 109.38C63.7854 108.268 65.5979 107.198 67.4447 106.118C68.5002 105.491 69.2511 104.565 69.6972 103.497L69.9242 102.699L69.9413 102.654C70.1045 101.805 70.106 100.87 69.8651 99.9143C69.6817 99.2357 69.6817 98.4491 69.6677 98.3427C74.5209 96.7821 79.4409 95.9846 83.9863 93.5716C88.9421 90.9632 93.8529 88.1093 98.7496 85.2226C100.744 84.0482 102.738 82.8722 104.7 81.7087C107.486 80.0808 110.239 78.4655 113.023 76.9142C113.121 76.8767 113.236 76.7938 113.336 76.7562C116.35 75.0408 118.316 72.8671 119.37 70.5918C119.93 69.4408 120.245 68.2711 120.382 67.1343L120.415 67.1218C120.763 64.3695 120.017 61.6985 118.602 59.883C117.775 58.7758 116.617 58.0221 115.608 57.0979C118.677 49.2211 117.534 44.3437 111.823 41.4413ZM65.6104 99.8565C65.7969 100.31 65.8684 100.843 66.1265 101.83C62.8931 103.816 59.7576 105.84 56.6253 107.715C52.4545 110.173 48.2091 112.323 44.099 114.98C42.4481 116.062 41.8915 115.34 41.3614 114.12C41.0039 113.246 40.6137 112.386 40.2562 111.511C35.1745 99.6829 30.2078 87.8497 25.1913 75.9978C24.6784 74.7343 24.1327 73.4832 23.6042 72.1884C23.5591 72.0195 23.4643 71.8303 23.371 71.6427C22.9373 70.5371 22.4367 69.3799 21.9548 68.1789C27.8729 64.6791 33.6604 61.2278 39.4292 57.8204C41.0117 56.9165 42.6843 56.3488 44.1409 55.1932C44.3073 55.054 44.4549 54.9602 44.5715 54.8789C44.7192 54.7835 44.8498 54.7334 44.9493 54.6959C45.0146 54.6709 45.0659 54.6146 45.1311 54.5896C45.2633 54.5395 45.4079 54.5192 45.5244 54.5145C45.5571 54.502 45.5571 54.502 45.5897 54.4895L45.6379 54.5083C45.7203 54.5161 45.8338 54.5083 45.9473 54.5786C45.9799 54.5661 45.9799 54.5661 46.011 54.6287C46.0592 54.6474 46.1074 54.6662 46.1727 54.7162C46.2846 54.7851 46.3654 54.8679 46.4121 54.9602C46.4914 55.0415 46.5395 55.1369 46.5862 55.2292C46.7447 55.4684 46.8707 55.7202 46.995 56.047C52.4141 68.9436 57.8984 81.8135 63.3998 94.6413C64.1149 96.388 64.8626 98.1222 65.6104 99.8565ZM106.272 41.1348C105.787 41.8072 105.251 42.5359 104.683 43.2021C104.049 43.9699 104.511 46.2249 105.504 46.2577C107.229 46.3453 109.115 45.7354 110.721 46.1311C112.701 46.5705 113.606 48.619 113.423 51.3088C113.227 53.8155 111.943 55.3183 110.101 56.2488C109.46 56.5318 108.801 56.9353 108.364 57.5498C107.223 59.2606 108.386 61.4343 109.328 61.5985C109.443 61.5922 109.505 61.6423 109.605 61.6047C109.687 61.6125 109.768 61.6188 109.833 61.5938C109.914 61.6 110.028 61.5922 110.094 61.5672C110.405 61.4859 110.716 61.4046 111.013 61.2904C111.128 61.2841 111.226 61.2466 111.324 61.2091C111.439 61.2013 111.537 61.1637 111.602 61.1387C111.75 61.1199 111.896 61.1012 112.011 61.0949C114.587 61.0058 116.17 62.6102 116.468 65.7143C116.762 68.9702 114.848 71.0125 112.673 72.2948C105.6 76.4607 98.4682 80.428 91.4123 84.6268C90.8355 84.9614 90.2588 85.2929 89.6976 85.6573C88.9064 86.1092 88.0996 86.6081 87.3239 87.0913C82.1629 90.2283 77.019 92.3832 71.5517 92.8695C70.8817 92.9383 70.2304 92.9633 69.6443 92.8883C69.0598 92.8132 68.5235 92.6803 68.0401 92.416C66.8618 91.8562 65.9213 90.7568 65.1907 88.9022C64.631 87.5448 64.1196 86.2078 63.5584 84.8488C62.5791 82.4938 61.6464 80.1544 60.681 77.829C60.0887 76.4841 59.5275 75.1268 58.9679 73.7694C58.3756 72.4246 57.8145 71.0672 57.2206 69.7208C55.7718 66.3461 54.2888 62.984 52.7576 59.6781C51.2901 56.4223 52.0565 53.0227 52.4312 49.6214C53.1354 42.8018 54.4241 35.9837 54.8671 29.189C54.8889 28.92 54.9091 28.6479 54.9308 28.379C54.9184 28.1976 54.9386 28.0021 54.9262 27.8191C54.9106 27.7863 54.9277 27.7441 54.9122 27.7112C54.8997 27.5298 54.92 27.3344 54.892 27.1217C54.8795 26.9387 54.85 26.7245 54.822 26.5118C54.7956 26.2225 54.7676 25.9332 54.7256 25.6126C54.6961 25.4734 54.6992 25.3233 54.6681 25.1841C54.6401 24.9699 54.5966 24.726 54.5515 24.4789C54.5546 24.3272 54.5251 24.1896 54.494 24.0504C54.4334 23.8502 54.4054 23.636 54.3759 23.4233C54.3292 23.2529 54.3013 23.0386 54.2406 22.84C54.0028 21.6578 53.7168 20.4568 53.4789 19.2762C53.3033 18.2957 53.0934 17.3277 52.8851 16.3597C52.6022 14.932 52.2882 13.5183 51.957 12.0734C51.6275 10.6284 51.3119 9.2132 50.9824 7.76827C50.8953 7.2788 51.0523 6.65641 51.1285 6.17946C57.4756 3.2239 62.621 6.71897 63.9719 10.9912C64.4476 12.494 64.8409 14.0641 65.2015 15.6482C65.5202 16.9117 65.772 18.2003 66.055 19.4748C66.3674 21.0401 66.6799 22.6055 67.0234 24.1567C67.6375 26.9544 68.152 29.7879 68.822 33.0875C75.4318 29.1718 81.7136 25.4562 88.025 21.8032C88.5038 21.5093 89.0307 21.2325 89.508 20.9353C91.5693 19.7344 93.6803 18.402 95.8115 17.7358C99.2703 16.674 102.207 19.8907 101.235 23.7439C101.217 23.8628 101.182 23.9503 101.164 24.0707C101.111 24.2772 101.008 24.4664 100.923 24.6853C100.688 25.0747 100.452 25.4641 100.136 25.8488C99.516 26.7229 98.7325 27.583 98.1464 28.4446C97.1889 29.8958 97.2168 31.0468 97.5775 31.7693C97.6723 31.9585 97.7811 32.1023 97.9257 32.2353C97.9568 32.2978 97.9723 32.3291 98.0221 32.3463C98.1666 32.4792 98.2786 32.548 98.4247 32.6059C98.4729 32.6246 98.5366 32.6747 98.6035 32.6497C99.3667 32.7685 100.345 31.9835 101.186 31.4753C103.394 30.1804 105.717 29.741 107.331 31.4049C108.384 32.498 109.156 34.7483 109.037 36.5513C108.907 38.0291 107.327 39.7195 106.272 41.1348Z" fill="#06B1CF"/>
<path d="M116.46 65.7068C116.749 68.972 114.851 71.0049 112.661 72.3013C105.599 76.4766 98.4682 80.4345 91.4091 84.627C90.8355 84.9617 90.2634 85.3026 89.6852 85.6576C88.897 86.1267 88.1104 86.6037 87.3223 87.0822C82.1582 90.2316 77.0236 92.3709 71.5657 92.8697C68.5017 93.1559 66.5368 92.3193 65.1844 88.9212C64.6434 87.5544 64.0947 86.2002 63.5397 84.8381C62.5915 82.5003 61.6354 80.164 60.667 77.8433C60.098 76.4875 59.5291 75.1333 58.9523 73.7791C58.3834 72.4232 57.8067 71.0706 57.219 69.732C55.7609 66.3558 54.2779 62.9999 52.7607 59.6721C51.2823 56.4195 52.0534 53.0167 52.4125 49.617C53.1307 42.8067 54.4287 35.9667 54.8842 29.1971C54.9013 28.9187 54.9106 28.6451 54.9137 28.3714C54.9199 28.1853 54.9199 28.0023 54.9121 27.8209C54.9152 27.785 54.9106 27.7506 54.9059 27.7099C54.9044 27.5176 54.895 27.3284 54.8795 27.1423C54.8764 26.9327 54.8577 26.731 54.8329 26.5214C54.794 26.082 54.7396 25.6395 54.6727 25.2016C54.6432 24.9592 54.5997 24.7215 54.5562 24.4776C54.5391 24.3353 54.508 24.1992 54.4831 24.0507C54.4442 23.8552 54.4054 23.6519 54.3665 23.4486C54.3276 23.2453 54.2888 23.0498 54.2437 22.8497C53.9965 21.6502 53.7152 20.4633 53.4913 19.2733C53.3079 18.3022 53.112 17.3373 52.9006 16.3772C52.5959 14.9385 52.271 13.5139 51.9446 12.083C51.6259 10.649 51.2994 9.21659 50.9948 7.77634C50.8937 7.29939 51.0694 6.67231 51.1113 6.18284C57.4678 3.21478 62.6257 6.73173 63.9594 10.9962C65.2777 15.1856 66.0487 19.744 67.0125 24.1664C67.6265 26.9562 68.1582 29.7866 68.8173 33.0768C75.9494 28.8828 82.7054 24.8763 89.4862 20.9481C91.5568 19.7409 93.6709 18.421 95.8006 17.7596C99.2672 16.6899 102.199 19.9004 101.246 23.7645C101.223 23.8693 101.192 23.9693 101.154 24.0788C101.084 24.2805 100.994 24.4901 100.896 24.6856C100.685 25.0906 100.428 25.4784 100.144 25.8662C99.4988 26.7357 98.7262 27.5739 98.134 28.459C96.5888 30.7796 97.6101 32.3278 98.4169 32.6218C98.4791 32.6405 98.5397 32.6624 98.6034 32.6702C99.3527 32.7766 100.326 31.9822 101.168 31.4912C103.388 30.201 105.708 29.7366 107.32 31.4098C108.377 32.4998 109.154 34.736 109.022 36.5547C108.919 38.0293 107.334 39.7151 106.264 41.1397C105.767 41.8028 105.237 42.5502 104.692 43.1867C104.029 43.967 104.492 46.2283 105.495 46.2721C107.225 46.3596 109.106 45.7404 110.727 46.1235C112.69 46.5926 113.592 48.6083 113.401 51.3059C113.224 53.8236 111.946 55.3201 110.079 56.2396C109.473 56.543 108.795 56.9339 108.369 57.561C107.223 59.2515 108.377 61.4236 109.344 61.6034C109.432 61.6128 109.513 61.6253 109.605 61.6175C109.684 61.6206 109.763 61.6175 109.849 61.6018C109.928 61.5972 110.012 61.5831 110.096 61.5596C110.399 61.5033 110.704 61.3954 111.018 61.3016C111.122 61.2703 111.234 61.2359 111.34 61.2125C111.438 61.1843 111.529 61.1656 111.621 61.1483C111.755 61.1233 111.884 61.1093 112.013 61.103C114.576 61.0248 116.183 62.6027 116.46 65.7068Z" fill="url(#paint2_linear_2532_13418)"/>
<path d="M21.9443 68.1839C27.8764 64.6701 33.6514 61.2329 39.4373 57.8348C40.9981 56.9184 42.6801 56.3414 44.1429 55.206C45.7129 53.9863 46.2694 54.3632 46.9814 56.0567C53.1373 70.7032 59.3927 85.2714 65.6076 99.8709C65.7988 100.32 65.8781 100.859 66.1315 101.818C62.8966 103.827 59.7766 105.848 56.6147 107.713C52.4517 110.17 48.197 112.312 44.1055 114.986C42.4562 116.065 41.8857 115.354 41.3603 114.122C35.9459 101.428 30.5688 88.707 25.1871 75.9872C24.1347 73.4976 23.1087 70.9878 21.9443 68.1839Z" fill="#8CD50A"/>
<defs>
<linearGradient id="paint0_linear_2532_13418" x1="69.5602" y1="21.5908" x2="94.6465" y2="9.07038" gradientUnits="userSpaceOnUse">
<stop stop-color="#465A80"/>
<stop offset="0.6513" stop-color="#2B3D52"/>
<stop offset="1" stop-color="#20313F"/>
</linearGradient>
<linearGradient id="paint1_linear_2532_13418" x1="98.4174" y1="32.6791" x2="98.5954" y2="32.6575" gradientUnits="userSpaceOnUse">
<stop stop-color="#122535"/>
<stop offset="1" stop-color="#354249"/>
</linearGradient>
<linearGradient id="paint2_linear_2532_13418" x1="94.7441" y1="13.8666" x2="37.9416" y2="107.781" gradientUnits="userSpaceOnUse">
<stop offset="0.00045606" stop-color="white"/>
<stop offset="1" stop-color="#CAD2FF"/>
</linearGradient>
</defs>
</svg>
