<svg width="139" height="140" viewBox="0 0 139 140" fill="none" xmlns="http://www.w3.org/2000/svg">
<path d="M103.612 25.9068L85.1466 29.1627L84.4954 25.4697C83.9773 22.5313 82.3132 19.9191 79.8691 18.2077C77.425 16.4964 74.4012 15.826 71.4628 16.3441L49.3046 20.2512C46.3663 20.7693 43.7541 22.4335 42.0427 24.8775C40.3314 27.3216 39.661 30.3455 40.1791 33.2838L40.8303 36.9768L22.3651 40.2328C21.3857 40.4055 20.515 40.9602 19.9445 41.7749C19.374 42.5896 19.1506 43.5975 19.3233 44.577C19.496 45.5564 20.0507 46.4271 20.8654 46.9976C21.6801 47.5681 22.688 47.7915 23.6675 47.6188L27.3605 46.9676L39.0818 113.442C39.4272 115.401 40.5366 117.143 42.166 118.283C43.7954 119.424 45.8113 119.871 47.7702 119.526L106.859 109.107C108.818 108.762 110.559 107.652 111.7 106.023C112.841 104.393 113.288 102.377 112.942 100.419L101.221 33.944L104.914 33.2928C105.894 33.1201 106.764 32.5654 107.335 31.7507C107.905 30.936 108.129 29.9281 107.956 28.9486C107.783 27.9692 107.229 27.0984 106.414 26.528C105.599 25.9575 104.591 25.7341 103.612 25.9068ZM47.5652 31.9815C47.3925 31.002 47.6159 29.9941 48.1864 29.1794C48.7568 28.3647 49.6276 27.81 50.607 27.6372L72.7652 23.7302C73.7446 23.5575 74.7526 23.7809 75.5673 24.3514C76.382 24.9218 76.9367 25.7926 77.1094 26.772L77.7606 30.465L48.2163 35.6745L47.5652 31.9815ZM105.556 101.721L46.4678 112.14L34.7466 45.6653L93.835 35.2464L105.556 101.721ZM60.1607 60.2233L65.3701 89.7676C65.5428 90.747 65.3194 91.755 64.7489 92.5697C64.1784 93.3844 63.3077 93.9391 62.3283 94.1118C61.3488 94.2845 60.3409 94.061 59.5262 93.4906C58.7115 92.9201 58.1568 92.0494 57.984 91.0699L52.7746 61.5257C52.6019 60.5462 52.8254 59.5383 53.3958 58.7236C53.9663 57.9089 54.837 57.3542 55.8165 57.1815C56.7959 57.0088 57.8038 57.2322 58.6185 57.8027C59.4332 58.3731 59.988 59.2439 60.1607 60.2233ZM82.3188 56.3162L87.5283 85.8605C87.701 86.8399 87.4775 87.8479 86.9071 88.6626C86.3366 89.4773 85.4659 90.032 84.4864 90.2047C83.507 90.3774 82.499 90.1539 81.6843 89.5835C80.8696 89.013 80.3149 88.1423 80.1422 87.1628L74.9328 57.6186C74.7601 56.6392 74.9835 55.6312 75.554 54.8165C76.1244 54.0018 76.9952 53.4471 77.9746 53.2744C78.9541 53.1017 79.962 53.3251 80.7767 53.8956C81.5914 54.4661 82.1461 55.3368 82.3188 56.3162Z" fill="#FA1717"/>
</svg>
