<svg width="24" height="24" viewBox="0 0 24 24" fill="none" xmlns="http://www.w3.org/2000/svg">
<path d="M23.2514 11.9998C23.2561 13.7859 22.6766 15.5245 21.6014 16.9507C21.5422 17.0295 21.468 17.0958 21.3831 17.146C21.2983 17.1961 21.2044 17.229 21.1068 17.2429C21.0092 17.2567 20.9098 17.2512 20.8144 17.2266C20.7189 17.2021 20.6292 17.159 20.5504 17.0998C20.4716 17.0405 20.4053 16.9664 20.3552 16.8815C20.305 16.7967 20.2721 16.7027 20.2583 16.6052C20.2444 16.5076 20.2499 16.4082 20.2745 16.3127C20.299 16.2173 20.3422 16.1276 20.4014 16.0488C21.2815 14.8828 21.7557 13.4607 21.7514 11.9998C21.7514 10.2095 21.0402 8.49265 19.7743 7.22678C18.5085 5.96091 16.7916 5.24975 15.0014 5.24975C13.2112 5.24975 11.4943 5.96091 10.2284 7.22678C8.96254 8.49265 8.25138 10.2095 8.25138 11.9998C8.25138 12.1987 8.17236 12.3894 8.03171 12.5301C7.89106 12.6707 7.70029 12.7498 7.50138 12.7498C7.30247 12.7498 7.1117 12.6707 6.97105 12.5301C6.8304 12.3894 6.75138 12.1987 6.75138 11.9998C6.75101 11.2429 6.8548 10.4896 7.05982 9.761C6.95763 9.74975 6.8545 9.74975 6.75138 9.74975C5.5579 9.74975 4.41331 10.2239 3.5694 11.0678C2.72548 11.9117 2.25138 13.0563 2.25138 14.2498C2.25138 15.4432 2.72548 16.5878 3.5694 17.4317C4.41331 18.2756 5.5579 18.7498 6.75138 18.7498H9.00138C9.20029 18.7498 9.39106 18.8288 9.53171 18.9694C9.67236 19.1101 9.75138 19.3008 9.75138 19.4998C9.75138 19.6987 9.67236 19.8894 9.53171 20.0301C9.39106 20.1707 9.20029 20.2498 9.00138 20.2498H6.75138C5.92654 20.2499 5.11053 20.0801 4.35429 19.7507C3.59806 19.4214 2.91786 18.9396 2.35617 18.3356C1.79447 17.7316 1.36336 17.0182 1.08974 16.2401C0.816122 15.462 0.705884 14.6358 0.765909 13.8131C0.825934 12.9905 1.05493 12.189 1.4386 11.4589C1.82228 10.7287 2.35238 10.0855 2.9958 9.56937C3.63923 9.05327 4.38215 8.67538 5.17818 8.4593C5.97421 8.24321 6.80624 8.19358 7.62232 8.3135C8.45331 6.65146 9.82108 5.31863 11.5041 4.53091C13.187 3.74318 15.0867 3.54669 16.8952 3.97326C18.7038 4.39983 20.3154 5.42448 21.469 6.88124C22.6226 8.338 23.2507 10.1415 23.2514 11.9998ZM14.782 11.4691C14.7123 11.3994 14.6296 11.3441 14.5386 11.3063C14.4475 11.2686 14.3499 11.2492 14.2514 11.2492C14.1528 11.2492 14.0552 11.2686 13.9642 11.3063C13.8731 11.3441 13.7904 11.3994 13.7208 11.4691L10.7208 14.4691C10.6511 14.5388 10.5958 14.6215 10.5581 14.7126C10.5204 14.8036 10.501 14.9012 10.501 14.9998C10.501 15.0983 10.5204 15.1959 10.5581 15.2869C10.5958 15.378 10.6511 15.4607 10.7208 15.5304C10.8615 15.6711 11.0524 15.7502 11.2514 15.7502C11.3499 15.7502 11.4475 15.7308 11.5386 15.693C11.6296 15.6553 11.7123 15.6001 11.782 15.5304L13.5014 13.8101V19.4998C13.5014 19.6987 13.5804 19.8894 13.721 20.0301C13.8617 20.1707 14.0525 20.2498 14.2514 20.2498C14.4503 20.2498 14.6411 20.1707 14.7817 20.0301C14.9224 19.8894 15.0014 19.6987 15.0014 19.4998V13.8101L16.7208 15.5304C16.7904 15.6001 16.8732 15.6553 16.9642 15.693C17.0553 15.7308 17.1528 15.7502 17.2514 15.7502C17.3499 15.7502 17.4475 15.7308 17.5386 15.693C17.6296 15.6553 17.7123 15.6001 17.782 15.5304C17.8517 15.4607 17.907 15.378 17.9447 15.2869C17.9824 15.1959 18.0018 15.0983 18.0018 14.9998C18.0018 14.9012 17.9824 14.8036 17.9447 14.7126C17.907 14.6215 17.8517 14.5388 17.782 14.4691L14.782 11.4691Z" fill="#5A648C"/>
</svg>
